<svg width="36" height="36" viewBox="0 0 36 36" fill="none" xmlns="http://www.w3.org/2000/svg">
<circle cx="18" cy="18" r="18" fill="#D9D9D9" fill-opacity="0.56"/>
<g clip-path="url(#clip0_14_4087)">
<path d="M25.5 18.572L18 26L10.5 18.572C10.0053 18.0906 9.61564 17.512 9.35554 16.8726C9.09545 16.2333 8.97056 15.5469 8.98873 14.8569C9.00691 14.1669 9.16776 13.4881 9.46115 12.8633C9.75455 12.2385 10.1741 11.6812 10.6935 11.2266C11.2128 10.7719 11.8207 10.4297 12.4788 10.2215C13.1369 10.0133 13.831 9.94358 14.5174 10.0168C15.2037 10.09 15.8675 10.3046 16.4669 10.6469C17.0662 10.9892 17.5882 11.452 18 12.006C18.4135 11.456 18.9361 10.9973 19.5351 10.6586C20.1341 10.3199 20.7965 10.1084 21.4809 10.0375C22.1654 9.96658 22.8571 10.0377 23.5128 10.2464C24.1685 10.4551 24.774 10.7969 25.2915 11.2504C25.8091 11.7038 26.2274 12.2593 26.5204 12.8819C26.8134 13.5045 26.9747 14.1809 26.9943 14.8687C27.0139 15.5565 26.8913 16.241 26.6341 16.8792C26.377 17.5175 25.9909 18.0958 25.5 18.578" stroke="#141414" stroke-width="1.5" stroke-linecap="round" stroke-linejoin="round"/>
</g>
<defs>
<clipPath id="clip0_14_4087">
<rect width="24" height="24" fill="white" transform="translate(6 6)"/>
</clipPath>
</defs>
</svg>
