<svg width="36" height="36" viewBox="0 0 36 36" fill="none" xmlns="http://www.w3.org/2000/svg">
<circle cx="18" cy="18" r="18" fill="#D9D9D9" fill-opacity="0.56"/>
<g clip-path="url(#clip0_56_1247)">
<path d="M25.5001 18.572L18.0001 26L10.5001 18.572C10.0054 18.0906 9.6157 17.512 9.3556 16.8726C9.09551 16.2333 8.97062 15.5469 8.98879 14.8569C9.00697 14.1669 9.16782 13.4881 9.46121 12.8633C9.75461 12.2385 10.1742 11.6812 10.6935 11.2266C11.2129 10.7719 11.8208 10.4297 12.4789 10.2215C13.137 10.0133 13.8311 9.94358 14.5174 10.0168C15.2038 10.09 15.8676 10.3046 16.4669 10.6469C17.0663 10.9892 17.5883 11.452 18.0001 12.006C18.4136 11.456 18.9362 10.9973 19.5352 10.6586C20.1341 10.3199 20.7966 10.1084 21.481 10.0375C22.1654 9.96658 22.8571 10.0377 23.5128 10.2464C24.1685 10.4551 24.7741 10.7969 25.2916 11.2504C25.8091 11.7038 26.2275 12.2593 26.5205 12.8819C26.8135 13.5045 26.9748 14.1809 26.9944 14.8687C27.0139 15.5565 26.8913 16.241 26.6342 16.8792C26.3771 17.5175 25.991 18.0958 25.5001 18.578" fill="#EF2D2D"/>
<path d="M25.5001 18.572L18.0001 26L10.5001 18.572C10.0054 18.0906 9.6157 17.512 9.3556 16.8726C9.09551 16.2333 8.97062 15.5469 8.98879 14.8569C9.00697 14.1669 9.16782 13.4881 9.46121 12.8633C9.75461 12.2385 10.1742 11.6812 10.6935 11.2266C11.2129 10.7719 11.8208 10.4297 12.4789 10.2215C13.137 10.0133 13.8311 9.94358 14.5174 10.0168C15.2038 10.09 15.8676 10.3046 16.4669 10.6469C17.0663 10.9892 17.5883 11.452 18.0001 12.006C18.4136 11.456 18.9362 10.9973 19.5352 10.6586C20.1341 10.3199 20.7966 10.1084 21.481 10.0375C22.1654 9.96658 22.8571 10.0377 23.5128 10.2464C24.1685 10.4551 24.7741 10.7969 25.2916 11.2504C25.8091 11.7038 26.2275 12.2593 26.5205 12.8819C26.8135 13.5045 26.9748 14.1809 26.9944 14.8687C27.0139 15.5565 26.8913 16.241 26.6342 16.8792C26.3771 17.5175 25.991 18.0958 25.5001 18.578" stroke="#EF2D2D" stroke-width="1.5" stroke-linecap="round" stroke-linejoin="round"/>
</g>
<defs>
<clipPath id="clip0_56_1247">
<rect width="24" height="24" fill="white" transform="translate(6 6)"/>
</clipPath>
</defs>
</svg>
