<svg width="37" height="42" viewBox="0 0 37 42" fill="none" xmlns="http://www.w3.org/2000/svg">
<mask id="mask0_26_1569" style="mask-type:alpha" maskUnits="userSpaceOnUse" x="6" y="0" width="25" height="24">
<rect x="6.5" width="24" height="24" fill="#D9D9D9"/>
</mask>
<g mask="url(#mask0_26_1569)">
<path d="M11.8914 9.20641L11.8914 9.20645L11.9 9.2L17.9 4.7L17.9 4.70002L17.906 4.69543C18.0777 4.56468 18.2636 4.5 18.5 4.5C18.7364 4.5 18.9223 4.56468 19.094 4.69543L19.0939 4.69545L19.1 4.7L25.1 9.2L25.1 9.20005L25.1086 9.20641C25.2276 9.29368 25.3209 9.40277 25.3931 9.54721C25.4653 9.69174 25.5 9.83863 25.5 10V19C25.5 19.2827 25.411 19.4998 25.2054 19.7054C24.9998 19.911 24.7827 20 24.5 20H21.5V15C21.5 14.4648 21.3081 13.9689 20.9196 13.5804C20.5311 13.1919 20.0352 13 19.5 13H17.5C16.9648 13 16.4689 13.1919 16.0804 13.5804C15.6919 13.9689 15.5 14.4648 15.5 15V20H12.5C12.2173 20 12.0002 19.911 11.7946 19.7054C11.589 19.4998 11.5 19.2827 11.5 19V10C11.5 9.83863 11.5347 9.69174 11.6069 9.54721C11.6791 9.40277 11.7724 9.29368 11.8914 9.20641Z" stroke="#979797" stroke-width="2"/>
</g>
<path d="M8.06 28.66V37H6.692V33.352H2.768V37H1.4V28.66H2.768V32.236H6.692V28.66H8.06ZM12.7289 37.108C12.1049 37.108 11.5409 36.968 11.0369 36.688C10.5329 36.4 10.1369 36 9.84894 35.488C9.56094 34.968 9.41694 34.368 9.41694 33.688C9.41694 33.016 9.56494 32.42 9.86094 31.9C10.1569 31.38 10.5609 30.98 11.0729 30.7C11.5849 30.42 12.1569 30.28 12.7889 30.28C13.4209 30.28 13.9929 30.42 14.5049 30.7C15.0169 30.98 15.4209 31.38 15.7169 31.9C16.0129 32.42 16.1609 33.016 16.1609 33.688C16.1609 34.36 16.0089 34.956 15.7049 35.476C15.4009 35.996 14.9849 36.4 14.4569 36.688C13.9369 36.968 13.3609 37.108 12.7289 37.108ZM12.7289 35.92C13.0809 35.92 13.4089 35.836 13.7129 35.668C14.0249 35.5 14.2769 35.248 14.4689 34.912C14.6609 34.576 14.7569 34.168 14.7569 33.688C14.7569 33.208 14.6649 32.804 14.4809 32.476C14.2969 32.14 14.0529 31.888 13.7489 31.72C13.4449 31.552 13.1169 31.468 12.7649 31.468C12.4129 31.468 12.0849 31.552 11.7809 31.72C11.4849 31.888 11.2489 32.14 11.0729 32.476C10.8969 32.804 10.8089 33.208 10.8089 33.688C10.8089 34.4 10.9889 34.952 11.3489 35.344C11.7169 35.728 12.1769 35.92 12.7289 35.92ZM25.5173 30.28C26.0373 30.28 26.5013 30.388 26.9093 30.604C27.3253 30.82 27.6493 31.14 27.8813 31.564C28.1213 31.988 28.2413 32.5 28.2413 33.1V37H26.8853V33.304C26.8853 32.712 26.7373 32.26 26.4413 31.948C26.1453 31.628 25.7413 31.468 25.2293 31.468C24.7173 31.468 24.3093 31.628 24.0053 31.948C23.7093 32.26 23.5613 32.712 23.5613 33.304V37H22.2053V33.304C22.2053 32.712 22.0573 32.26 21.7613 31.948C21.4653 31.628 21.0613 31.468 20.5493 31.468C20.0373 31.468 19.6293 31.628 19.3253 31.948C19.0293 32.26 18.8813 32.712 18.8813 33.304V37H17.5133V30.388H18.8813V31.144C19.1053 30.872 19.3893 30.66 19.7333 30.508C20.0773 30.356 20.4453 30.28 20.8373 30.28C21.3653 30.28 21.8373 30.392 22.2533 30.616C22.6693 30.84 22.9893 31.164 23.2133 31.588C23.4133 31.188 23.7253 30.872 24.1493 30.64C24.5733 30.4 25.0293 30.28 25.5173 30.28ZM36.042 33.532C36.042 33.78 36.026 34.004 35.994 34.204H30.942C30.982 34.732 31.178 35.156 31.53 35.476C31.882 35.796 32.314 35.956 32.826 35.956C33.562 35.956 34.082 35.648 34.386 35.032H35.862C35.662 35.64 35.298 36.14 34.77 36.532C34.25 36.916 33.602 37.108 32.826 37.108C32.194 37.108 31.626 36.968 31.122 36.688C30.626 36.4 30.234 36 29.946 35.488C29.666 34.968 29.526 34.368 29.526 33.688C29.526 33.008 29.662 32.412 29.934 31.9C30.214 31.38 30.602 30.98 31.098 30.7C31.602 30.42 32.178 30.28 32.826 30.28C33.45 30.28 34.006 30.416 34.494 30.688C34.982 30.96 35.362 31.344 35.634 31.84C35.906 32.328 36.042 32.892 36.042 33.532ZM34.614 33.1C34.606 32.596 34.426 32.192 34.074 31.888C33.722 31.584 33.286 31.432 32.766 31.432C32.294 31.432 31.89 31.584 31.554 31.888C31.218 32.184 31.018 32.588 30.954 33.1H34.614Z" fill="#979797"/>
</svg>
