<svg width="60" height="8" viewBox="0 0 60 8" fill="none" xmlns="http://www.w3.org/2000/svg">
<rect width="28" height="8" rx="4" fill="#229B52"/>
<path d="M44 3.99996C44 6.2091 42.2091 7.99996 40 7.99996C37.7909 7.99996 36 6.2091 36 3.99996C36 1.79082 37.7909 -4.34882e-05 40 -4.34882e-05C42.2091 -4.34882e-05 44 1.79082 44 3.99996Z" fill="#229B52"/>
<path d="M60 3.99996C60 6.2091 58.2091 7.99996 56 7.99996C53.7909 7.99996 52 6.2091 52 3.99996C52 1.79082 53.7909 -4.34882e-05 56 -4.34882e-05C58.2091 -4.34882e-05 60 1.79082 60 3.99996Z" fill="#229B52"/>
</svg>
