<svg width="60" height="8" viewBox="0 0 60 8" fill="none" xmlns="http://www.w3.org/2000/svg">
<path d="M8 3.99996C8 6.2091 6.20914 7.99996 4 7.99996C1.79086 7.99996 0 6.2091 0 3.99996C0 1.79082 1.79086 -4.34882e-05 4 -4.34882e-05C6.20914 -4.34882e-05 8 1.79082 8 3.99996Z" fill="#229B52"/>
<rect x="16" width="28" height="8" rx="4" fill="#229B52"/>
<path d="M60 3.99996C60 6.2091 58.2091 7.99996 56 7.99996C53.7909 7.99996 52 6.2091 52 3.99996C52 1.79082 53.7909 -4.34882e-05 56 -4.34882e-05C58.2091 -4.34882e-05 60 1.79082 60 3.99996Z" fill="#229B52"/>
</svg>
