<svg width="24" height="24" viewBox="0 0 24 24" fill="none" xmlns="http://www.w3.org/2000/svg">
<path d="M2.5 12C2.5 7.52166 2.5 5.28249 3.89124 3.89124C5.28249 2.5 7.52166 2.5 12 2.5C16.4783 2.5 18.7175 2.5 20.1088 3.89124C21.5 5.28249 21.5 7.52166 21.5 12C21.5 16.4783 21.5 18.7175 20.1088 20.1088C18.7175 21.5 16.4783 21.5 12 21.5C7.52166 21.5 5.28249 21.5 3.89124 20.1088C2.5 18.7175 2.5 16.4783 2.5 12Z" fill="#34A853"/>
<path d="M8.17647 7H10.5294L11.7059 9.94118L10.2353 10.8235C10.8653 12.1009 11.8991 13.1347 13.1765 13.7647L14.0588 12.2941L17 13.4706V15.8235C17 16.1355 16.8761 16.4348 16.6554 16.6554C16.4348 16.8761 16.1355 17 15.8235 17C13.529 16.8606 11.3648 15.8862 9.73931 14.2607C8.11383 12.6352 7.13944 10.471 7 8.17647C7 7.86445 7.12395 7.56521 7.34458 7.34458C7.56521 7.12395 7.86445 7 8.17647 7Z" stroke="#3E3E3E" stroke-width="1.5" stroke-linecap="round" stroke-linejoin="round"/>
</svg>
