
<svg width="281" height="280" viewBox="0 0 281 280" fill="none" xmlns="http://www.w3.org/2000/svg">
<path d="M170.224 24.8119C163.789 20.1807 155.31 19.3939 148.146 22.689C113.185 38.7677 -2.21153 95.503 22.0986 133.432C50.6698 178.008 152.004 248.33 189.186 244.976C226.368 241.623 268.495 179.269 259.03 138.226C251.076 103.74 197.602 44.5144 170.224 24.8119Z" fill="#229B52"/>
<path opacity="0.7" d="M170.224 24.8119C163.789 20.1807 155.31 19.3939 148.146 22.689C113.185 38.7677 -2.21153 95.503 22.0986 133.432C50.6698 178.008 152.004 248.33 189.186 244.976C226.368 241.623 268.495 179.269 259.03 138.226C251.076 103.74 197.602 44.5144 170.224 24.8119Z" fill="white"/>
<path d="M202.628 141.087C203.484 143.134 207.158 146.489 207.161 146.492C207.199 146.526 208.637 143.399 208.705 143.192C209.494 140.788 209.602 135.678 207.31 134.012C205.658 132.813 203.446 133.499 202.461 135.192C201.454 136.92 201.899 139.344 202.628 141.087Z" fill="#263238"/>
<path d="M261.429 173.855C259.602 171.69 254.514 172.168 252.173 173.128C251.971 173.212 248.956 174.873 248.993 174.908C248.993 174.908 249.029 174.941 249.038 174.949C248.233 175.018 247.373 175.102 246.434 175.212C244.702 175.429 242.747 175.691 240.639 176.12C238.53 176.542 236.252 177.06 233.901 177.823C231.543 178.584 229.103 179.505 226.71 180.779C226.684 180.793 226.657 180.812 226.63 180.826C227.214 180.237 228.792 178.532 228.898 178.388C230.396 176.349 232.093 171.528 230.434 169.231C229.239 167.576 226.924 167.538 225.459 168.839C223.964 170.168 223.631 172.609 223.781 174.493C223.949 176.618 226.189 180.66 226.368 180.981C224.101 182.215 221.875 183.666 219.703 185.258C218.46 186.168 217.237 187.122 216.022 188.095C216.511 187.568 216.944 187.094 216.997 187.021C218.495 184.981 220.191 180.162 218.533 177.864C217.338 176.209 215.022 176.172 213.558 177.473C212.063 178.801 211.729 181.242 211.879 183.126C212.031 185.038 213.871 188.523 214.371 189.438C213.909 189.816 213.443 190.189 212.983 190.568C210.772 192.389 208.575 194.216 206.365 195.943C205.586 196.551 204.797 197.122 204.009 197.695C204.442 197.228 204.803 196.83 204.852 196.764C206.35 194.724 208.047 189.904 206.389 187.607C205.193 185.952 202.877 185.914 201.413 187.216C199.918 188.543 199.585 190.985 199.734 192.869C199.879 194.693 201.549 197.926 202.137 199.016C201.313 199.579 200.488 200.145 199.664 200.654C199.093 200.989 198.567 201.35 197.975 201.655C197.396 201.968 196.822 202.278 196.254 202.586C195.137 203.137 193.99 203.714 192.888 204.225C192.123 204.586 191.388 204.916 190.65 205.251C191.432 204.654 192.939 203.453 193.053 203.339C194.242 202.151 195.698 199.763 196.166 197.553C196.343 197.379 196.503 197.19 196.645 196.985C197.756 195.372 197.435 193.079 195.646 192.096C193.162 190.732 188.586 193.007 186.747 194.744C186.639 194.847 185.585 196.09 184.934 196.886C185.245 196.359 185.554 195.853 185.869 195.308C186.497 194.233 187.093 193.143 187.74 191.973C188.032 191.396 188.326 190.815 188.624 190.226C188.932 189.65 189.184 189.001 189.469 188.384C190.1 186.94 190.67 185.445 191.21 183.927C192.152 184.475 195.524 186.375 197.411 186.579C199.29 186.784 201.741 186.521 203.111 185.065C204.454 183.639 204.485 181.324 202.865 180.081C200.617 178.356 195.749 179.911 193.668 181.35C193.538 181.44 192.161 182.64 191.416 183.313C191.734 182.398 192.056 181.486 192.347 180.55C193.189 177.847 193.957 175.085 194.734 172.332C194.972 171.488 195.219 170.651 195.464 169.812C195.797 170.011 199.757 172.356 201.871 172.586C203.749 172.789 206.199 172.527 207.571 171.071C208.914 169.646 208.944 167.33 207.324 166.087C205.075 164.362 200.208 165.918 198.126 167.356C197.97 167.465 195.99 169.194 195.508 169.659C196.047 167.812 196.6 165.975 197.22 164.187C198.071 161.718 199.043 159.343 200.154 157.112C200.31 157.205 204.431 159.67 206.596 159.906C208.475 160.11 210.925 159.848 212.296 158.392C213.639 156.966 213.669 154.65 212.049 153.408C209.801 151.683 204.934 153.239 202.852 154.677C202.688 154.79 200.56 156.652 200.198 157.018C200.264 156.885 200.318 156.74 200.385 156.609C201.603 154.242 203.079 152.102 204.559 150.166C205.417 149.039 206.3 148.01 207.182 147.029C207.902 147.567 211.223 149.989 213.147 150.416C214.993 150.824 217.456 150.833 218.98 149.537C220.471 148.267 220.755 145.969 219.282 144.556C217.237 142.594 212.228 143.607 210.001 144.807C209.88 144.873 208.722 145.673 207.888 146.268C208.292 145.832 208.702 145.372 209.098 144.962C210.581 143.416 212.035 142.09 213.331 140.928C214.074 140.272 214.758 139.694 215.405 139.161C216.387 139.319 220.354 139.911 222.225 139.412C224.052 138.924 226.242 137.797 226.996 135.944C227.735 134.13 226.927 131.959 224.969 131.384C222.251 130.586 218.271 133.792 216.848 135.884C216.726 136.065 215.127 139.114 215.178 139.123C215.178 139.123 215.226 139.131 215.237 139.133C214.605 139.633 213.933 140.179 213.211 140.789C211.886 141.926 210.4 143.222 208.878 144.743C207.352 146.258 205.738 147.948 204.197 149.881C202.652 151.816 201.123 153.931 199.831 156.314C199.816 156.34 199.805 156.371 199.791 156.398C199.952 155.583 200.327 153.291 200.336 153.112C200.461 150.585 199.217 145.629 196.566 144.628C194.657 143.907 192.704 145.153 192.2 147.046C191.686 148.979 192.755 151.199 193.919 152.687C195.232 154.366 199.33 156.502 199.657 156.671C198.447 158.951 197.391 161.39 196.458 163.916C195.922 165.36 195.428 166.831 194.952 168.312C195.068 167.604 195.168 166.969 195.172 166.879C195.297 164.351 194.053 159.395 191.402 158.395C189.492 157.673 187.54 158.919 187.037 160.812C186.522 162.745 187.591 164.966 188.755 166.454C189.936 167.965 193.393 169.856 194.315 170.344C194.138 170.914 193.955 171.481 193.781 172.052C192.942 174.79 192.117 177.526 191.225 180.185C190.911 181.123 190.568 182.034 190.228 182.947C190.331 182.318 190.412 181.787 190.417 181.704C190.542 179.177 189.297 174.22 186.646 173.219C184.737 172.498 182.785 173.745 182.281 175.637C181.767 177.57 182.836 179.79 184 181.28C185.127 182.722 188.302 184.496 189.395 185.081C189.018 186.005 188.642 186.932 188.236 187.811C187.944 188.406 187.705 188.997 187.379 189.578C187.069 190.159 186.761 190.734 186.457 191.304C185.831 192.38 185.191 193.494 184.554 194.528C184.116 195.25 183.686 195.931 183.254 196.618C183.577 195.689 184.171 193.857 184.204 193.698C184.71 191.219 184.231 186.131 181.762 184.74C179.983 183.738 177.866 184.674 177.081 186.469C176.28 188.301 177 190.658 177.924 192.306C178.943 194.12 182.512 196.762 182.96 197.089C182.242 198.223 181.532 199.319 180.846 200.343C180.499 200.863 180.16 201.363 179.828 201.85L181.046 203.128C181.438 202.529 181.84 201.91 182.253 201.26C182.987 200.112 183.749 198.87 184.519 197.587C184.849 197.721 186.733 198.469 188.579 198.946C188.543 201.084 189.96 204.98 190.146 205.481C188.922 206.031 187.725 206.553 186.588 207.029C186.269 207.163 185.729 207.302 185.152 207.44L186.449 208.802C186.793 208.723 187.088 208.644 187.255 208.57C188.501 208.017 189.822 207.401 191.172 206.756C191.48 207.205 194.022 210.858 195.808 211.931C197.428 212.903 199.763 213.691 201.619 212.944C203.435 212.212 204.433 210.121 203.482 208.314C202.164 205.806 197.092 205.18 194.599 205.614C194.452 205.64 192.888 206.096 191.906 206.4C192.456 206.134 192.993 205.881 193.556 205.599C194.673 205.051 195.772 204.47 196.956 203.85C197.518 203.531 198.084 203.207 198.657 202.882C199.232 202.57 199.8 202.168 200.378 201.811C201.702 200.954 203.001 200.022 204.289 199.053C204.772 200.03 206.536 203.475 207.998 204.687C209.453 205.893 211.641 207.027 213.588 206.569C215.495 206.121 216.797 204.205 216.131 202.275C215.207 199.597 210.29 198.209 207.759 198.26C207.602 198.263 205.791 198.505 204.799 198.656C205.569 198.068 206.34 197.485 207.099 196.864C209.292 195.074 211.456 193.194 213.624 191.327C214.287 190.755 214.955 190.193 215.622 189.628C215.79 189.978 217.799 194.118 219.435 195.475C220.889 196.682 223.078 197.815 225.025 197.357C226.932 196.909 228.234 194.993 227.569 193.064C226.645 190.385 221.727 188.997 219.197 189.048C219.007 189.052 216.401 189.403 215.743 189.524C217.212 188.28 218.687 187.054 220.19 185.904C222.262 184.314 224.383 182.87 226.541 181.622C226.618 181.785 228.696 186.115 230.372 187.506C231.827 188.712 234.015 189.845 235.962 189.387C237.868 188.939 239.171 187.024 238.506 185.094C237.582 182.415 232.664 181.028 230.134 181.078C229.936 181.083 227.133 181.462 226.629 181.566C226.758 181.492 226.883 181.402 227.012 181.329C229.333 180.026 231.745 179.055 234.047 178.257C235.384 177.791 236.689 177.419 237.965 177.087C238.269 177.933 239.702 181.785 241.072 183.203C242.385 184.562 244.436 185.929 246.421 185.687C248.366 185.451 249.87 183.691 249.421 181.7C248.797 178.935 244.061 177.016 241.541 176.789C241.404 176.777 239.997 176.806 238.973 176.842C239.551 176.7 240.145 176.544 240.703 176.42C242.793 175.948 244.736 175.645 246.459 175.39C247.44 175.253 248.33 175.149 249.164 175.06C249.895 175.734 252.878 178.416 254.714 179.033C256.505 179.633 258.955 179.901 260.606 178.772C262.221 177.671 262.746 175.415 261.429 173.855Z" fill="#263238"/>
<path d="M238.245 176.631C238.257 176.681 241.182 174.866 241.354 174.73C243.337 173.159 246.247 168.958 245.253 166.304C244.537 164.392 242.314 163.745 240.558 164.613C238.765 165.499 237.799 167.766 237.446 169.623C237.031 171.802 238.245 176.627 238.245 176.631Z" fill="#263238"/>
<path d="M75.4913 141.087C74.6345 143.134 70.9609 146.489 70.9581 146.492C70.92 146.526 69.4819 143.399 69.4141 143.192C68.6257 140.788 68.517 135.678 70.8097 134.012C72.4611 132.813 74.6731 133.499 75.6587 135.192C76.665 136.92 76.2204 139.344 75.4913 141.087Z" fill="#263238"/>
<path d="M16.6895 173.855C18.5162 171.69 23.6044 172.168 25.9458 173.128C26.1479 173.212 29.163 174.873 29.1254 174.908C29.1254 174.908 29.0902 174.941 29.0812 174.949C29.8854 175.018 30.7455 175.102 31.6846 175.212C33.4167 175.429 35.3717 175.691 37.4801 176.12C39.5885 176.542 41.8671 177.06 44.218 177.823C46.5756 178.584 49.0161 179.505 51.4084 180.779C51.4353 180.793 51.4616 180.812 51.489 180.826C50.905 180.237 49.3269 178.532 49.221 178.388C47.723 176.349 46.0257 171.528 47.685 169.231C48.88 167.576 51.1956 167.538 52.66 168.839C54.1552 170.168 54.4884 172.609 54.3389 174.493C54.1709 176.618 51.9303 180.66 51.7511 180.981C54.018 182.215 56.244 183.666 58.4162 185.258C59.6594 186.168 60.8825 187.122 62.0971 188.095C61.6082 187.568 61.1754 187.094 61.1222 187.021C59.6236 184.981 57.9274 180.162 59.5861 177.864C60.7811 176.209 63.0967 176.172 64.5606 177.473C66.0563 178.801 66.3895 181.242 66.24 183.126C66.0882 185.038 64.2475 188.523 63.748 189.438C64.21 189.816 64.6759 190.189 65.1362 190.568C67.3466 192.389 69.544 194.216 71.7543 195.943C72.5327 196.551 73.3223 197.122 74.1097 197.695C73.6768 197.228 73.3156 196.83 73.2669 196.764C71.7689 194.724 70.0715 189.904 71.7302 187.607C72.9258 185.952 75.2414 185.914 76.7058 187.216C78.201 188.543 78.5342 190.985 78.3847 192.869C78.2402 194.693 76.5703 197.926 75.9818 199.016C76.8061 199.579 77.6304 200.145 78.4553 200.654C79.0259 200.989 79.5518 201.35 80.1437 201.655C80.7227 201.968 81.2967 202.278 81.8651 202.586C82.9812 203.137 84.1292 203.714 85.2313 204.225C85.9957 204.586 86.7304 204.916 87.469 205.251C86.6873 204.654 85.1803 203.453 85.0655 203.339C83.8766 202.151 82.4206 199.763 81.9525 197.553C81.7761 197.379 81.6154 197.19 81.4737 196.985C80.3626 195.372 80.6841 193.079 82.4733 192.096C84.9569 190.732 89.5326 193.007 91.3717 194.744C91.4803 194.847 92.5331 196.09 93.185 196.886C92.8736 196.359 92.5645 195.853 92.2503 195.308C91.6214 194.233 91.0256 193.143 90.3788 191.973C90.0871 191.396 89.7925 190.815 89.4946 190.226C89.1871 189.65 88.9351 189.001 88.6501 188.384C88.019 186.94 87.4489 185.445 86.909 183.927C85.9666 184.475 82.5948 186.375 80.7076 186.579C78.8288 186.784 76.3782 186.521 75.0074 185.065C73.6645 183.639 73.6342 181.324 75.2538 180.081C77.5016 178.356 82.3697 179.911 84.4512 181.35C84.5811 181.44 85.9582 182.64 86.7024 183.313C86.3849 182.398 86.0629 181.486 85.7717 180.55C84.93 177.847 84.1622 175.085 83.3844 172.332C83.1464 171.488 82.8994 170.651 82.6558 169.812C82.3226 170.011 78.3629 172.356 76.2489 172.586C74.3707 172.789 71.9201 172.527 70.5486 171.071C69.2058 169.646 69.1761 167.33 70.7956 166.087C73.0434 164.362 77.911 165.918 79.993 167.356C80.1498 167.465 82.1294 169.194 82.611 169.659C82.0729 167.812 81.519 165.975 80.8997 164.187C80.0485 161.718 79.0769 159.343 77.9653 157.112C77.8102 157.205 73.6886 159.67 71.5236 159.906C69.6448 160.11 67.1948 159.848 65.8234 158.392C64.4805 156.966 64.4502 154.65 66.0703 153.408C68.3182 151.683 73.1857 153.239 75.2678 154.677C75.4313 154.79 77.5598 156.652 77.9216 157.018C77.8555 156.885 77.8018 156.74 77.734 156.609C76.5166 154.242 75.0404 152.102 73.5603 150.166C72.7024 149.039 71.8193 148.01 70.9378 147.029C70.2171 147.567 66.8969 149.989 64.9722 150.416C63.1264 150.824 60.663 150.833 59.1398 149.537C57.6485 148.267 57.364 145.969 58.8374 144.556C60.8825 142.594 65.8917 143.607 68.1182 144.807C68.2398 144.873 69.3973 145.673 70.2317 146.268C69.8268 145.832 69.4174 145.372 69.0215 144.962C67.5386 143.416 66.0849 142.09 64.7885 140.928C64.0454 140.272 63.361 139.694 62.7148 139.161C61.732 139.319 57.765 139.911 55.894 139.412C54.0678 138.924 51.8771 137.797 51.1234 135.944C50.3847 134.13 51.1922 131.959 53.15 131.384C55.8688 130.586 59.8482 133.792 61.2717 135.884C61.3938 136.065 62.992 139.114 62.941 139.123C62.941 139.123 62.8929 139.131 62.8822 139.133C63.5145 139.633 64.1865 140.179 64.9083 140.789C66.2333 141.926 67.7195 143.222 69.2416 144.743C70.767 146.258 72.3815 147.948 73.9215 149.881C75.4677 151.816 76.9959 153.931 78.2878 156.314C78.3024 156.34 78.3142 156.371 78.3282 156.398C78.1669 155.583 77.7917 153.291 77.7827 153.112C77.6578 150.585 78.9022 145.629 81.5527 144.628C83.4628 143.907 85.415 145.153 85.9184 147.046C86.4325 148.979 85.3634 151.199 84.1998 152.687C82.8871 154.366 78.789 156.502 78.462 156.671C79.6716 158.951 80.7283 161.39 81.6613 163.916C82.1966 165.36 82.6906 166.831 83.1671 168.312C83.0501 167.604 82.951 166.969 82.9465 166.879C82.8216 164.351 84.0659 159.395 86.717 158.395C88.6266 157.673 90.5787 158.919 91.0822 160.812C91.5968 162.745 90.5278 164.966 89.3641 166.454C88.1831 167.965 84.7256 169.856 83.8038 170.344C83.9808 170.914 84.1639 171.481 84.3381 172.052C85.177 174.79 86.0024 177.526 86.8939 180.185C87.2075 181.123 87.5508 182.034 87.8913 182.947C87.7877 182.318 87.7065 181.787 87.702 181.704C87.5771 179.177 88.8214 174.22 91.4719 173.219C93.3815 172.498 95.3337 173.745 95.8371 175.637C96.3512 177.57 95.2827 179.79 94.1185 181.28C92.9918 182.722 89.816 184.496 88.7234 185.081C89.1003 186.005 89.4761 186.932 89.8826 187.811C90.1738 188.406 90.413 188.997 90.7389 189.578C91.0491 190.159 91.3571 190.734 91.6612 191.304C92.2873 192.38 92.9268 193.494 93.5641 194.528C94.002 195.25 94.4326 195.931 94.8644 196.618C94.5413 195.689 93.9471 193.857 93.9146 193.698C93.4078 191.219 93.8872 186.131 96.3562 184.74C98.1348 183.738 100.253 184.674 101.037 186.469C101.839 188.301 101.118 190.658 100.194 192.306C99.1753 194.12 95.6058 196.762 95.1578 197.089C95.8763 198.223 96.5859 199.319 97.2719 200.343C97.619 200.863 97.9578 201.363 98.2905 201.85L97.073 203.128C96.6805 202.529 96.279 201.91 95.8657 201.26C95.1315 200.112 94.3699 198.87 93.5999 197.587C93.2695 197.721 91.3862 198.469 89.5394 198.946C89.5758 201.084 88.1584 204.98 87.9725 205.481C89.1972 206.031 90.3939 206.553 91.5313 207.029C91.8499 207.163 92.3898 207.302 92.9666 207.44L91.6702 208.802C91.3263 208.723 91.0306 208.644 90.8638 208.57C89.6178 208.017 88.2967 207.401 86.9471 206.756C86.6386 207.205 84.0973 210.858 82.3109 211.931C80.6902 212.903 78.3556 213.691 76.4998 212.944C74.6837 212.212 73.6863 210.121 74.6366 208.314C75.9549 205.806 81.0268 205.18 83.5194 205.614C83.6666 205.64 85.2307 206.096 86.213 206.4C85.663 206.134 85.126 205.881 84.5626 205.599C83.4454 205.051 82.3467 204.47 81.1629 203.85C80.6012 203.531 80.0345 203.207 79.4616 202.882C78.8871 202.57 78.3192 202.168 77.7413 201.811C76.4169 200.954 75.1177 200.022 73.8297 199.053C73.3464 200.03 71.5824 203.475 70.1208 204.687C68.6659 205.893 66.478 207.027 64.5309 206.569C62.6241 206.121 61.3215 204.205 61.9868 202.275C62.9108 199.597 67.8287 198.209 70.3588 198.26C70.5162 198.263 72.3272 198.505 73.3195 198.656C72.5495 198.068 71.7784 197.485 71.019 196.864C68.8261 195.074 66.6622 193.194 64.4945 191.327C63.8309 190.755 63.1628 190.193 62.4964 189.628C62.3278 189.978 60.3197 194.118 58.6828 195.475C57.2285 196.682 55.04 197.815 53.0929 197.357C51.1866 196.909 49.8841 194.993 50.5494 193.064C51.4728 190.385 56.3913 188.997 58.9208 189.048C59.1112 189.052 61.7169 189.403 62.3749 189.524C60.906 188.28 59.4315 187.054 57.9279 185.904C55.8565 184.314 53.7358 182.87 51.5775 181.622C51.4997 181.785 49.4226 186.115 47.7466 187.506C46.2917 188.712 44.1032 189.845 42.1561 189.387C40.2498 188.939 38.9473 187.024 39.6126 185.094C40.5366 182.415 45.4545 181.028 47.9846 181.078C48.1828 181.083 50.9862 181.462 51.4896 181.566C51.3608 181.492 51.2359 181.402 51.1066 181.329C48.7859 180.026 46.374 179.055 44.0713 178.257C42.734 177.791 41.4298 177.419 40.1535 177.087C39.8494 177.933 38.4164 181.785 37.0461 183.203C35.7329 184.562 33.6822 185.929 31.6964 185.687C29.7521 185.451 28.2474 183.691 28.6965 181.7C29.3203 178.935 34.0562 177.016 36.5762 176.789C36.7129 176.777 38.1202 176.806 39.1444 176.842C38.5659 176.7 37.9718 176.544 37.4146 176.42C35.3241 175.948 33.3814 175.645 31.6583 175.39C30.6778 175.253 29.7879 175.149 28.9541 175.06C28.2233 175.734 25.2396 178.416 23.4039 179.033C21.6125 179.633 19.163 179.901 17.5116 178.772C15.8977 177.671 15.373 175.415 16.6895 173.855Z" fill="#263238"/>
<path d="M39.8741 176.631C39.8612 176.681 36.9363 174.866 36.765 174.73C34.7815 173.159 31.8723 168.958 32.8657 166.304C33.5814 164.392 35.8046 163.745 37.5607 164.613C39.3533 165.499 40.3199 167.766 40.6732 169.623C41.0882 171.802 39.8747 176.627 39.8741 176.631Z" fill="#263238"/>
<path d="M140.252 257.495C164.178 257.495 183.573 255.149 183.573 252.256C183.573 249.363 164.178 247.017 140.252 247.017C116.327 247.017 96.9319 249.363 96.9319 252.256C96.9319 255.149 116.327 257.495 140.252 257.495Z" fill="#263238"/>
<path d="M249.064 223.843H220.538V233.912H249.064V223.843Z" stroke="#263238" stroke-width="0.72" stroke-miterlimit="10" stroke-linecap="round" stroke-linejoin="round"/>
<path d="M248.168 233.894H221.434V250.108H248.168V233.894Z" stroke="#263238" stroke-width="0.72" stroke-miterlimit="10" stroke-linecap="round" stroke-linejoin="round"/>
<path d="M237.864 223.896H231.737V250.252H237.864V223.896Z" stroke="#263238" stroke-width="0.72" stroke-miterlimit="10" stroke-linecap="round" stroke-linejoin="round"/>
<path d="M234.593 223.839C234.593 223.839 231.529 217.395 227.937 218.135C224.346 218.874 226.142 224.156 234.593 223.839Z" stroke="#263238" stroke-width="0.72" stroke-miterlimit="10" stroke-linecap="round" stroke-linejoin="round"/>
<path d="M234.848 223.839C234.848 223.839 237.912 217.395 241.504 218.135C245.096 218.874 243.3 224.156 234.848 223.839Z" stroke="#263238" stroke-width="0.72" stroke-miterlimit="10" stroke-linecap="round" stroke-linejoin="round"/>
<path d="M242.833 210.212C243.044 211.691 242.305 213.275 240.086 214.226C237.867 215.177 236.705 212.536 234.381 214.966C232.057 217.396 234.848 223.84 234.848 223.84C234.848 223.84 242.516 222.783 242.833 225.741C243.15 228.699 240.72 230.073 241.46 231.869C242.199 233.665 244.523 232.397 244.735 230.39" stroke="#263238" stroke-width="0.72" stroke-miterlimit="10" stroke-linecap="round" stroke-linejoin="round"/>
<path d="M240.08 51.2081C248.128 51.2081 254.653 44.6836 254.653 36.6352C254.653 28.5868 248.128 22.0623 240.08 22.0623C232.031 22.0623 225.507 28.5868 225.507 36.6352C225.507 44.6836 232.031 51.2081 240.08 51.2081Z" stroke="#263238" stroke-width="0.72" stroke-miterlimit="10" stroke-linecap="round" stroke-linejoin="round"/>
<path d="M240.163 48.4377V46.4559C238.541 46.3926 237.334 45.8662 236.54 44.875C235.745 43.8838 235.309 42.476 235.23 40.6509L238.251 40.0613C238.283 40.801 238.369 41.4534 238.511 42.0201C238.652 42.5863 238.876 43.0225 239.183 43.3294C239.49 43.6363 239.895 43.7897 240.398 43.7897C240.965 43.7897 241.369 43.6212 241.614 43.2824C241.857 42.9441 241.979 42.5152 241.979 41.9961C241.979 41.1628 241.786 40.4785 241.401 39.9431C241.016 39.4083 240.517 38.8735 239.903 38.3387L237.472 36.2152C237.032 35.8221 236.646 35.4093 236.315 34.9765C235.985 34.5441 235.725 34.0564 235.537 33.5137C235.348 32.9711 235.253 32.3377 235.253 31.6142C235.253 30.1829 235.662 29.0617 236.48 28.2514C237.298 27.4417 238.399 26.997 239.784 26.9181V25.0068H240.799V26.8945C241.601 26.9416 242.262 27.1185 242.781 27.4254C243.3 27.7323 243.713 28.1254 244.019 28.6053C244.326 29.0853 244.554 29.624 244.704 30.2215C244.854 30.8196 244.944 31.4406 244.975 32.0857L242.002 32.6049C241.97 32.0073 241.908 31.4686 241.813 30.9887C241.718 30.5093 241.542 30.1313 241.282 29.8558C241.022 29.5809 240.641 29.4588 240.138 29.4901C239.603 29.5058 239.197 29.6789 238.922 30.0093C238.647 30.3397 238.51 30.7569 238.51 31.2597C238.51 31.9362 238.659 32.4833 238.958 32.9C239.257 33.3172 239.626 33.7299 240.067 34.1387L242.474 36.2387C242.977 36.6951 243.445 37.1907 243.878 37.7255C244.311 38.2609 244.657 38.8584 244.917 39.5192C245.176 40.18 245.306 40.9349 245.306 41.7844C245.306 42.6339 245.137 43.3933 244.798 44.0613C244.46 44.73 243.985 45.2687 243.371 45.6775C242.757 46.0869 242.026 46.3383 241.176 46.4329V48.4383L240.163 48.4377Z" fill="#263238"/>
<path d="M54.5805 36.3147C57.1737 35.7097 58.7854 33.1171 58.1804 30.5239C57.5753 27.9308 54.9827 26.3191 52.3896 26.9241C49.7965 27.5291 48.1848 30.1217 48.7898 32.7149C49.3948 35.308 51.9874 36.9197 54.5805 36.3147Z" stroke="#263238" stroke-width="0.72" stroke-miterlimit="10" stroke-linecap="round" stroke-linejoin="round"/>
<path d="M60.3789 45.4893C60.2495 41.0619 57.2188 37.5177 53.4886 37.5177C49.759 37.5177 46.7277 41.0619 46.5984 45.4893" stroke="#263238" stroke-width="0.72" stroke-miterlimit="10" stroke-linecap="round" stroke-linejoin="round"/>
<path d="M64.5747 34.8116C66.7879 34.8116 68.5821 33.0174 68.5821 30.8042C68.5821 28.591 66.7879 26.7969 64.5747 26.7969C62.3615 26.7969 60.5674 28.591 60.5674 30.8042C60.5674 33.0174 62.3615 34.8116 64.5747 34.8116Z" stroke="#263238" stroke-width="0.72" stroke-miterlimit="10" stroke-linecap="round" stroke-linejoin="round"/>
<path d="M70.3007 42.3335C70.1932 38.6537 67.6743 35.7081 64.5741 35.7081C62.5475 35.7081 60.7695 36.967 59.7509 38.8671" stroke="#263238" stroke-width="0.72" stroke-miterlimit="10" stroke-linecap="round" stroke-linejoin="round"/>
<path d="M42.5348 34.8116C44.748 34.8116 46.5422 33.0174 46.5422 30.8042C46.5422 28.591 44.748 26.7969 42.5348 26.7969C40.3216 26.7969 38.5275 28.591 38.5275 30.8042C38.5275 33.0174 40.3216 34.8116 42.5348 34.8116Z" stroke="#263238" stroke-width="0.72" stroke-miterlimit="10" stroke-linecap="round" stroke-linejoin="round"/>
<path d="M36.8082 42.3335C36.9157 38.6537 39.4346 35.7081 42.5348 35.7081C44.5614 35.7081 46.3394 36.967 47.3581 38.8671" stroke="#263238" stroke-width="0.72" stroke-miterlimit="10" stroke-linecap="round" stroke-linejoin="round"/>
<path d="M52.2068 245.321C60.153 244.043 65.5585 236.565 64.2805 228.619C63.0024 220.673 55.5246 215.267 47.5785 216.546C39.6323 217.824 34.2268 225.301 35.5048 233.247C36.7829 241.194 44.2607 246.599 52.2068 245.321Z" stroke="#263238" stroke-width="0.72" stroke-miterlimit="10" stroke-linecap="round" stroke-linejoin="round"/>
<path d="M49.8861 222.742V239.137" stroke="#263238" stroke-width="2.88" stroke-miterlimit="10" stroke-linecap="round" stroke-linejoin="round"/>
<path d="M58.0834 230.939H41.6888" stroke="#263238" stroke-width="2.88" stroke-miterlimit="10" stroke-linecap="round" stroke-linejoin="round"/>
<path d="M186.195 50.5702V220.503C186.195 225.168 182.414 228.949 177.75 228.949H104.324C99.6597 228.949 95.8785 225.168 95.8785 220.503V50.5658C95.8785 45.9038 99.6574 42.1249 104.319 42.1249H135.836L135.863 42.2212C136.648 45.0475 138.456 46.8866 140.462 46.8866H141.612C143.618 46.8866 145.426 45.0475 146.212 42.2212L146.243 42.1249H177.751C182.414 42.1249 186.195 45.906 186.195 50.5702Z" fill="white" stroke="#263238" stroke-width="0.72" stroke-miterlimit="10" stroke-linecap="round" stroke-linejoin="round"/>
<path d="M191.938 91.1579V74.1849H190.403V52.4558C190.403 45.0587 184.406 39.0617 177.009 39.0617H105.064C97.6673 39.0617 91.6703 45.0582 91.6703 52.4558V225.122C91.6703 232.519 97.6668 238.516 105.064 238.516H177.009C184.406 238.516 190.403 232.519 190.403 225.122V105.623H191.939V95.5937H190.403V91.1579H191.938ZM186.195 215.554C186.195 222.953 180.195 228.949 172.8 228.949H109.273C101.878 228.949 95.8781 222.953 95.8781 215.554V55.5156C95.8781 48.1203 101.878 42.1249 109.273 42.1249H135.836L135.862 42.2212C136.648 45.0475 138.456 46.8866 140.462 46.8866H141.612C143.618 46.8866 145.426 45.0475 146.211 42.2212L146.242 42.1249H172.8C180.196 42.1249 186.195 48.1203 186.195 55.5156V215.554H186.195Z" fill="#229B52" stroke="#263238" stroke-width="0.72" stroke-miterlimit="10" stroke-linecap="round" stroke-linejoin="round"/>
<path d="M175.935 40.9074H106.139C99.0047 40.9074 93.2216 46.6911 93.2216 53.8249V223.753C93.2216 230.887 99.0047 236.671 106.139 236.671H175.935C183.07 236.671 188.853 230.887 188.853 223.753V53.8249C188.853 46.6911 183.069 40.9074 175.935 40.9074ZM186.195 216.031C186.195 223.166 180.411 228.949 173.276 228.949H108.797C101.662 228.949 95.8776 223.165 95.8776 216.03V55.0401C95.8776 47.9074 101.66 42.1254 108.792 42.1254H135.835L135.862 42.2217C136.647 45.048 138.456 46.8871 140.461 46.8871H141.611C143.617 46.8871 145.425 45.048 146.211 42.2217L146.242 42.1254H173.276C180.411 42.1254 186.194 47.9097 186.194 55.0446V216.031H186.195Z" fill="#263238" stroke="#263238" stroke-width="0.72" stroke-miterlimit="10" stroke-linecap="round" stroke-linejoin="round"/>
<path d="M142.018 42.7656C142.018 42.0712 141.455 41.5084 140.761 41.5084C140.067 41.5084 139.504 42.0712 139.504 42.7656C139.504 43.46 140.067 44.0228 140.761 44.0228C141.455 44.0228 142.018 43.46 142.018 42.7656Z" fill="white"/>
<path d="M103.906 47.5832C103.906 48.8555 102.477 49.3136 102.471 50.2841V50.3501H103.857V50.7785H102.007V50.4168C102.007 49.0543 103.435 48.7889 103.435 47.6011C103.435 47.1671 103.29 46.9381 102.941 46.9381C102.597 46.9381 102.446 47.185 102.446 47.5585V47.9321H102.006V47.5888C102.006 46.9437 102.301 46.5153 102.953 46.5153C103.611 46.5164 103.906 46.9386 103.906 47.5832Z" fill="#263238"/>
<path d="M106.216 47.5772V47.6853C106.216 48.1198 106.041 48.4273 105.703 48.5533C106.058 48.686 106.216 49.0057 106.216 49.4274V49.7528C106.216 50.3979 105.914 50.8201 105.263 50.8201C104.618 50.8201 104.317 50.3979 104.317 49.7528V49.4638H104.757V49.7836C104.757 50.1633 104.914 50.3923 105.251 50.3923C105.595 50.3923 105.746 50.1694 105.746 49.7416V49.4162C105.746 49.0001 105.571 48.8013 105.215 48.7896H104.962V48.3673H105.239C105.553 48.355 105.746 48.1562 105.746 47.7889V47.5957C105.746 47.1617 105.595 46.9388 105.251 46.9388C104.914 46.9388 104.757 47.1734 104.757 47.5537V47.7704H104.317V47.5777C104.317 46.9326 104.618 46.5165 105.263 46.5165C105.914 46.516 106.216 46.9321 106.216 47.5772Z" fill="#263238"/>
<path d="M107.127 47.8968V48.482H106.674V47.8968H107.127ZM107.127 50.1939V50.7791H106.674V50.1939H107.127Z" fill="#263238"/>
<path d="M108.08 48.277C108.212 48.048 108.423 47.927 108.707 47.927C109.249 47.927 109.49 48.3252 109.49 48.9278V49.7538C109.49 50.3989 109.183 50.8211 108.538 50.8211C107.893 50.8211 107.592 50.3989 107.592 49.7538V49.4704H108.032V49.784C108.032 50.1637 108.189 50.3927 108.526 50.3927C108.864 50.3927 109.021 50.1637 109.021 49.784V48.9642C109.021 48.5845 108.864 48.3549 108.526 48.3549C108.267 48.3549 108.092 48.4999 108.05 48.8074V48.9042H107.61L107.725 46.559H109.388V46.9812H108.146L108.08 48.277Z" fill="#263238"/>
<path d="M111.836 47.5715V47.6499H111.396V47.5418C111.396 47.1615 111.239 46.9392 110.896 46.9392C110.54 46.9392 110.383 47.1683 110.383 47.6202V48.5666C110.498 48.2776 110.727 48.1147 111.064 48.1147C111.607 48.1147 111.848 48.5067 111.848 49.1154V49.7543C111.848 50.3995 111.529 50.8217 110.883 50.8217C110.232 50.8217 109.912 50.3995 109.912 49.7543V47.6017C109.912 46.9325 110.214 46.5164 110.883 46.5164C111.535 46.5164 111.836 46.9263 111.836 47.5715ZM110.383 49.1512V49.784C110.383 50.1637 110.54 50.3927 110.884 50.3927C111.222 50.3927 111.384 50.1637 111.384 49.784V49.1512C111.384 48.7715 111.222 48.5419 110.884 48.5419C110.54 48.5419 110.383 48.771 110.383 49.1512Z" fill="#263238"/>
<path d="M157.909 47.7562H156.717V50.7354H157.909V47.7562Z" fill="#263238"/>
<path d="M159.498 47.1603H158.306V50.7359H159.498V47.1603Z" fill="#263238"/>
<path d="M161.087 46.736H159.895V50.7355H161.087V46.736Z" fill="#263238"/>
<path d="M162.676 45.9995H161.484V50.736H162.676V45.9995Z" fill="#263238"/>
<path d="M177.422 50.6537H170.272V46.2845H177.422V50.6537ZM170.669 50.2561H177.025V46.681H170.669V50.2561Z" fill="#263238"/>
<path d="M175.039 47.1139H171.265V49.8243H175.039V47.1139Z" fill="#263238"/>
<path d="M178.074 47.9548H177.174V48.9841H178.074V47.9548Z" fill="#263238"/>
<path d="M167.651 49.7033C167.605 49.7033 167.557 49.6916 167.515 49.6658C166.06 48.8012 165.098 49.6036 165.058 49.6378C164.947 49.7341 164.778 49.7218 164.682 49.6109C164.586 49.5001 164.596 49.3332 164.707 49.2357C164.758 49.1904 165.988 48.137 167.788 49.2066C167.915 49.2817 167.957 49.4457 167.881 49.5729C167.83 49.6569 167.742 49.7033 167.651 49.7033Z" fill="#263238"/>
<path d="M168.189 48.8062C168.143 48.8062 168.095 48.7945 168.053 48.7687C165.949 47.5177 164.535 48.7278 164.521 48.7396C164.41 48.8376 164.242 48.8264 164.144 48.7155C164.047 48.6046 164.057 48.4361 164.168 48.3392C164.186 48.3235 165.891 46.863 168.326 48.3101C168.453 48.3851 168.495 48.5492 168.419 48.6763C168.368 48.7597 168.28 48.8062 168.189 48.8062Z" fill="#263238"/>
<path d="M168.677 47.7663C168.631 47.7663 168.583 47.7546 168.541 47.7288C165.876 46.1446 164.105 47.6359 164.03 47.7008C163.92 47.7971 163.75 47.7854 163.654 47.6751C163.557 47.5642 163.568 47.3967 163.679 47.2993C163.7 47.2803 165.805 45.4804 168.814 47.2702C168.941 47.3452 168.983 47.5093 168.907 47.6364C168.857 47.7199 168.768 47.7663 168.677 47.7663Z" fill="#263238"/>
<path d="M166.847 50.1518C166.847 50.5219 166.547 50.8215 166.177 50.8215C165.807 50.8215 165.508 50.5219 165.508 50.1518C165.508 49.7816 165.808 49.482 166.177 49.482C166.547 49.4814 166.847 49.7816 166.847 50.1518Z" fill="#263238"/>
<path d="M52.2893 73.0865H58.82" stroke="#263238" stroke-width="0.72" stroke-miterlimit="10" stroke-linecap="round" stroke-linejoin="round"/>
<path d="M102.904 73.0862H109.435" stroke="#263238" stroke-width="0.72" stroke-miterlimit="10" stroke-linecap="round" stroke-linejoin="round"/>
<path d="M58.8201 55.9423L62.4942 58.8" stroke="#263238" stroke-width="0.72" stroke-miterlimit="10" stroke-linecap="round" stroke-linejoin="round"/>
<path d="M102.088 55.9423L98.4143 58.8" stroke="#263238" stroke-width="0.72" stroke-miterlimit="10" stroke-linecap="round" stroke-linejoin="round"/>
<path d="M73.515 49.0034L73.9233 55.1258" stroke="#263238" stroke-width="0.72" stroke-miterlimit="10" stroke-linecap="round" stroke-linejoin="round"/>
<path d="M87.8017 49.8198L86.9852 55.1258" stroke="#263238" stroke-width="0.72" stroke-miterlimit="10" stroke-linecap="round" stroke-linejoin="round"/>
<path d="M97.0629 65.4389H61.8193V95.8547H97.0629V65.4389Z" fill="white" stroke="#263238" stroke-width="0.72" stroke-miterlimit="10" stroke-linecap="round" stroke-linejoin="round"/>
<path d="M74.9085 65.4389H68.2607V95.8547H74.9085V65.4389Z" fill="#229B52" stroke="#263238" stroke-width="0.72" stroke-miterlimit="10" stroke-linecap="round" stroke-linejoin="round"/>
<path d="M97.0629 65.4389H81.6147V95.8547H97.0629V65.4389Z" fill="white" stroke="#263238" stroke-width="0.72" stroke-miterlimit="10" stroke-linecap="round" stroke-linejoin="round"/>
<path d="M76.955 62.9592L71.7901 60.698C71.6507 60.6784 71.5252 60.675 71.4071 60.6784L71.3214 60.6386H66.1212L70.1734 62.5387C70.1935 62.8226 70.2406 63.1116 70.3039 63.3871C70.5424 64.4208 71.5123 64.9288 72.1474 65.1561L72.1793 65.3157H72.704C72.7096 65.3168 72.718 65.3185 72.718 65.3185L81.7161 65.4395C81.7161 65.4395 79.4072 64.1991 76.955 62.9592Z" fill="#229B52" stroke="#263238" stroke-width="0.72" stroke-miterlimit="10" stroke-linecap="round" stroke-linejoin="round"/>
<path d="M76.5423 65.4389C76.5423 65.4389 70.9238 62.4216 67.9059 61.0939C64.8887 59.7661 64.7677 61.818 65.13 63.3871C65.4923 64.9562 67.5442 65.318 67.5442 65.318L76.5423 65.4389Z" fill="#229B52" stroke="#263238" stroke-width="0.72" stroke-miterlimit="10" stroke-linecap="round" stroke-linejoin="round"/>
<path d="M77.8772 63.2375H75.8987C74.7126 63.2375 73.7511 64.1991 73.7511 65.3851H80.0248C80.0253 64.1996 79.0638 63.2375 77.8772 63.2375Z" fill="#229B52" stroke="#263238" stroke-width="0.72" stroke-miterlimit="10" stroke-linecap="round" stroke-linejoin="round"/>
<path d="M90.2303 60.698H85.6607L85.0654 62.9592C82.6132 64.1991 80.3043 65.4389 80.3043 65.4389L89.3024 65.318C89.3024 65.318 89.3108 65.3163 89.3164 65.3152H89.8411L89.873 65.1556C90.5086 64.9282 91.478 64.4197 91.7166 63.3865C92.0173 62.084 91.9792 60.4538 90.2303 60.698Z" fill="#229B52" stroke="#263238" stroke-width="0.72" stroke-miterlimit="10" stroke-linecap="round" stroke-linejoin="round"/>
<path d="M74.9087 65.4389C74.9087 65.4389 80.5272 62.4216 83.545 61.0939C86.5623 59.7661 86.6833 61.818 86.3209 63.3871C85.9586 64.9562 83.9068 65.318 83.9068 65.318L74.9087 65.4389Z" fill="#229B52" stroke="#263238" stroke-width="0.72" stroke-miterlimit="10" stroke-linecap="round" stroke-linejoin="round"/>
<path d="M62.9702 97.9737C62.9702 97.9737 60.0246 96.0109 60.6686 95.3921C61.3126 94.7728 64.4738 96.1341 65.1945 97.0536C65.9152 97.9732 65.5524 98.6172 64.9588 98.6737C64.3646 98.7303 62.9702 97.9737 62.9702 97.9737Z" fill="#FFB573" stroke="#263238" stroke-width="0.72" stroke-miterlimit="10" stroke-linecap="round" stroke-linejoin="round"/>
<path d="M65.4555 95.7179C65.4555 95.7179 60.8904 93.344 61.9863 95.5353C63.0816 97.7266 65.8206 99.7353 66.9165 100.283C68.0124 100.831 74.0375 100.648 74.0375 100.648C74.0375 100.648 72.9421 98.6394 71.8462 98.0917C70.7503 97.5435 65.4555 95.7179 65.4555 95.7179Z" fill="#FFB573" stroke="#263238" stroke-width="0.72" stroke-miterlimit="10" stroke-linecap="round" stroke-linejoin="round"/>
<path d="M69.8375 95.7184C69.8375 95.7184 63.8119 92.4318 63.6293 93.7097C63.4468 94.9882 68.377 99.1876 70.02 99.9178C71.6636 100.648 74.0369 100.648 74.0369 100.648L69.8375 95.7184Z" fill="#FFB573" stroke="#263238" stroke-width="0.72" stroke-miterlimit="10" stroke-linecap="round" stroke-linejoin="round"/>
<path d="M93.5726 101.344C93.5726 101.344 91.3814 96.2308 89.7383 95.5006C88.0947 94.7703 73.3046 96.2308 73.3046 96.2308C73.3046 96.2308 66.183 90.3878 66.7313 93.3093C67.279 96.2308 71.8441 99.7 73.122 100.613C74.3999 101.526 83.8953 101.161 83.8953 101.161L86.8168 103.9L93.5726 101.344Z" fill="#FFB573" stroke="#263238" stroke-width="0.72" stroke-miterlimit="10" stroke-linecap="round" stroke-linejoin="round"/>
<path d="M183.465 109.569C183.465 109.569 182.863 110.687 183.207 111.718C183.551 112.75 184.496 113.609 184.496 113.609L184.926 116.273L190.77 116.531L188.363 107.592L183.465 109.569Z" fill="#FFB573" stroke="#263238" stroke-width="0.72" stroke-miterlimit="10" stroke-linecap="round" stroke-linejoin="round"/>
<path d="M179.491 92.9471C179.491 92.9471 181.929 108.795 182.295 109.77C182.661 110.746 185.465 111.843 186.44 111.355C187.415 110.867 185.708 108.551 185.708 108.551L186.196 93.3128C186.196 93.3128 182.052 91.728 179.491 92.9471Z" fill="#263238" stroke="#263238" stroke-width="0.72" stroke-miterlimit="10" stroke-linecap="round" stroke-linejoin="round"/>
<path d="M186.318 97.9451C186.318 97.9451 182.905 97.7015 182.783 98.3107C182.661 98.92 182.661 100.993 183.271 101.237C183.881 101.48 188.025 101.846 188.757 101.602C189.488 101.359 190.341 99.8955 189.61 98.7985C188.878 97.7015 186.318 97.9451 186.318 97.9451Z" fill="#FFB573" stroke="#263238" stroke-width="0.72" stroke-miterlimit="10" stroke-linecap="round" stroke-linejoin="round"/>
<path d="M186.318 101.846C186.318 101.846 183.026 101.846 183.149 102.577C183.271 103.309 182.905 104.894 184.246 105.137C185.587 105.381 187.903 105.259 189.122 105.015C190.341 104.771 190.706 103.308 189.731 102.455C188.756 101.602 186.318 101.846 186.318 101.846Z" fill="#FFB573" stroke="#263238" stroke-width="0.72" stroke-miterlimit="10" stroke-linecap="round" stroke-linejoin="round"/>
<path d="M181.028 102.784C181.028 102.784 180.609 99.711 179.617 99.7972C178.879 99.8616 177.112 100.417 177.273 101.77C177.434 103.124 178.231 105.301 178.823 106.395C179.414 107.489 180.92 107.408 181.448 106.225C181.977 105.043 181.028 102.784 181.028 102.784Z" fill="#FFB573" stroke="#263238" stroke-width="0.72" stroke-miterlimit="10" stroke-linecap="round" stroke-linejoin="round"/>
<path d="M186.504 105.137C186.504 105.137 183.525 105.137 183.636 105.84C183.746 106.543 183.415 108.067 184.629 108.302C185.842 108.536 187.938 108.419 189.041 108.185C190.144 107.95 190.475 106.544 189.593 105.723C188.71 104.902 186.504 105.137 186.504 105.137Z" fill="#FFB573" stroke="#263238" stroke-width="0.72" stroke-miterlimit="10" stroke-linecap="round" stroke-linejoin="round"/>
<path d="M186.644 107.813C186.644 107.813 184.153 107.813 184.245 108.401C184.337 108.99 184.06 110.265 185.076 110.461C186.091 110.657 187.844 110.559 188.767 110.363C189.689 110.167 189.966 108.989 189.228 108.303C188.489 107.617 186.644 107.813 186.644 107.813Z" fill="#FFB573" stroke="#263238" stroke-width="0.72" stroke-miterlimit="10" stroke-linecap="round" stroke-linejoin="round"/>
<path d="M178.813 76.9098C175.374 76.8426 172.421 78.9936 171.148 81.97C170.718 82.9758 170.481 84.0812 170.481 85.2443C170.481 87.267 171.2 89.1223 172.399 90.5632C173.926 92.4073 176.432 93.725 178.812 93.5782C186.127 93.1286 205.3 103.397 205.3 103.397V67.0886C205.3 67.0886 186.403 77.0588 178.813 76.9098Z" fill="white" stroke="#263238" stroke-width="0.72" stroke-miterlimit="10" stroke-linecap="round" stroke-linejoin="round"/>
<path d="M177.325 85.5409C177.325 81.589 179.526 78.1517 182.768 76.3866C181.272 76.7332 179.919 76.932 178.812 76.9102C175.373 76.843 172.42 78.994 171.147 81.9704C170.717 82.9761 170.48 84.0816 170.48 85.2447C170.48 87.2674 171.199 89.1227 172.398 90.5636C173.925 92.4076 176.431 93.7253 178.811 93.5786C179.545 93.5332 180.402 93.6004 181.344 93.75C178.902 91.8437 177.325 88.8796 177.325 85.5409Z" fill="#229B52" stroke="#263238" stroke-width="0.72" stroke-miterlimit="10" stroke-linecap="round" stroke-linejoin="round"/>
<path d="M222.931 89.5386C225.302 79.7971 219.327 69.9778 209.586 67.6066C199.844 65.2354 190.025 71.2102 187.654 80.9517C185.283 90.6932 191.257 100.512 200.999 102.884C210.74 105.255 220.56 99.2801 222.931 89.5386Z" fill="white" stroke="#263238" stroke-width="0.72" stroke-miterlimit="10" stroke-linecap="round" stroke-linejoin="round"/>
<path d="M220.773 85.2443C220.773 93.7899 213.844 100.719 205.299 100.719C200.509 100.719 196.226 98.5437 193.391 95.1204C191.165 92.4442 189.829 89.0002 189.829 85.2443C189.829 83.0849 190.269 81.0325 191.067 79.1649C193.432 73.6383 198.912 69.7698 205.299 69.7698C213.845 69.7698 220.773 76.6987 220.773 85.2443Z" fill="#A6A6A6" stroke="#263238" stroke-width="0.72" stroke-miterlimit="10" stroke-linecap="round" stroke-linejoin="round"/>
<path d="M205.299 81.4632V89.0215L193.391 95.1216C191.165 92.4453 189.829 89.0014 189.829 85.2454C189.829 83.0861 190.27 81.0337 191.068 79.1661L205.299 81.4632Z" fill="white" stroke="#263238" stroke-width="0.72" stroke-miterlimit="10" stroke-linecap="round" stroke-linejoin="round"/>
<path d="M209.08 85.2432C209.08 87.3303 207.388 89.0226 205.301 89.0226C203.214 89.0226 201.522 87.3309 201.522 85.2432C201.522 83.1561 203.214 81.4643 205.301 81.4643C207.388 81.4637 209.08 83.1561 209.08 85.2432Z" fill="white" stroke="#263238" stroke-width="0.72" stroke-miterlimit="10" stroke-linecap="round" stroke-linejoin="round"/>
<path d="M183.7 116.511L183.097 113.974L190.947 113.008L190.77 116.531L183.7 116.511Z" fill="#FFB573" stroke="#263238" stroke-width="0.72" stroke-miterlimit="10" stroke-linecap="round" stroke-linejoin="round"/>
<path d="M86.3504 104.915L84.5388 102.017L92.8727 97.7894L93.5727 101.343L86.3504 104.915Z" fill="#FFB573" stroke="#263238" stroke-width="0.72" stroke-miterlimit="10" stroke-linecap="round" stroke-linejoin="round"/>
<path d="M136.999 100.719C136.999 100.719 123.607 99.2314 122.416 99.8267C121.226 100.422 104.262 120.511 104.262 120.511L93.8451 99.6783L85.0654 103.547C85.0654 103.547 96.0773 141.047 97.8625 141.493C99.6484 141.939 116.612 130.63 116.612 130.63L115.57 145.51C115.57 145.51 118.695 158.01 132.534 160.391C146.373 162.772 154.558 152.058 156.343 148.487C158.129 144.916 159.766 139.707 159.766 139.707L166.165 120.809C166.165 120.809 184.17 135.541 188.188 137.326C192.205 139.112 195.926 140.749 196.372 139.855C196.818 138.963 192.355 115.154 192.355 115.154L182.831 115.6L183.278 119.32C183.278 119.32 170.927 103.1 169.885 101.464C168.844 99.8267 165.719 100.124 161.999 99.0825C158.278 98.0409 136.999 100.719 136.999 100.719Z" fill="#229B52" stroke="#263238" stroke-width="0.72" stroke-miterlimit="10" stroke-linecap="round" stroke-linejoin="round"/>
<path d="M116.613 130.628L126.583 123.188" stroke="#263238" stroke-width="0.72" stroke-miterlimit="10" stroke-linecap="round" stroke-linejoin="round"/>
<path d="M123.012 126.016L128.071 125.123" stroke="#263238" stroke-width="0.72" stroke-miterlimit="10" stroke-linecap="round" stroke-linejoin="round"/>
<path d="M166.165 120.808L169.587 108.754" stroke="#263238" stroke-width="0.72" stroke-miterlimit="10" stroke-linecap="round" stroke-linejoin="round"/>
<path d="M167.504 116.939L171.225 111.731" stroke="#263238" stroke-width="0.72" stroke-miterlimit="10" stroke-linecap="round" stroke-linejoin="round"/>
<path d="M183.722 127.984L183.873 130.927" stroke="#263238" stroke-width="0.72" stroke-miterlimit="10" stroke-linecap="round" stroke-linejoin="round"/>
<path d="M183.277 119.32L183.55 124.624" stroke="#263238" stroke-width="0.72" stroke-miterlimit="10" stroke-linecap="round" stroke-linejoin="round"/>
<path d="M104.261 120.51L107.386 127.058" stroke="#263238" stroke-width="0.72" stroke-miterlimit="10" stroke-linecap="round" stroke-linejoin="round"/>
<path d="M142.058 99.0823L135.51 100.273C135.51 100.273 133.129 102.207 131.79 106.671C130.451 111.136 130.005 115.005 130.005 115.005L135.659 115.302L131.195 119.766C131.195 119.766 132.535 121.701 135.361 125.868C138.189 130.034 142.653 134.796 142.653 134.796L134.32 145.51C134.32 145.51 144.439 143.278 150.689 136.433C156.938 129.588 160.659 119.321 160.659 119.321L155.748 115.452L160.956 114.41C160.956 114.41 161.998 105.928 156.492 100.422C150.987 94.9159 142.058 99.0823 142.058 99.0823Z" fill="#229B52" stroke="#263238" stroke-width="0.72" stroke-miterlimit="10" stroke-linecap="round" stroke-linejoin="round"/>
<path d="M156.792 102.654C156.792 102.654 155.052 106.093 154.709 112.474C154.438 117.458 151.823 123.809 149.515 128.302C147.684 131.874 146.046 134.274 145.928 133.905C145.928 133.905 144.961 132.36 143.42 127.862C143.047 126.782 142.643 125.528 142.207 124.08C139.976 116.639 138.042 104.588 138.933 102.209C139.828 99.8293 140.422 98.7855 140.422 98.7855C147.566 108.457 156.792 102.654 156.792 102.654Z" fill="white" stroke="#263238" stroke-width="0.72" stroke-miterlimit="10" stroke-linecap="round" stroke-linejoin="round"/>
<path d="M147.714 123.04L149.515 128.301C147.684 131.872 146.046 134.272 145.928 133.904C145.928 133.904 144.961 132.358 143.42 127.86L145.928 123.337L143.441 118.685L146.373 115.748L150.39 119.765L147.714 123.04Z" fill="#263238" stroke="#263238" stroke-width="0.72" stroke-miterlimit="10" stroke-linecap="round" stroke-linejoin="round"/>
<path d="M141.463 120.807L146.373 115.748L152.355 121.388" stroke="#263238" stroke-width="0.72" stroke-miterlimit="10" stroke-linecap="round" stroke-linejoin="round"/>
<path d="M140.421 98.7842C140.421 98.7842 140.57 103.248 142.207 107.564C143.844 111.879 146.373 115.748 146.373 115.748L153.367 105.778C153.367 105.778 145.778 106.522 140.421 98.7842Z" stroke="#263238" stroke-width="0.72" stroke-miterlimit="10" stroke-linecap="round" stroke-linejoin="round"/>
<path d="M161.708 83.0166C161.708 83.0166 163.832 82.6812 163.832 85.5887C163.832 88.4962 162.602 92.0746 162.602 92.0746L161.708 83.0166Z" fill="#FFB573" stroke="#263238" stroke-width="0.72" stroke-miterlimit="10" stroke-linecap="round" stroke-linejoin="round"/>
<path d="M160.957 72.2977C160.957 72.2977 162.444 85.8391 162.593 89.8565C162.742 93.8745 162.296 97.4456 160.957 99.2315C159.617 101.017 154.26 108.16 151.433 108.457C148.606 108.755 145.481 107.267 144.29 106.225C143.1 105.184 137.445 96.2551 137.445 96.2551C137.445 96.2551 133.13 95.9577 132.089 90.3028C131.047 84.6479 136.85 85.9875 136.85 85.9875C136.85 85.9875 133.725 81.0768 133.427 76.3151C133.13 71.5535 132.237 69.7676 145.035 69.4703C157.832 69.1729 160.957 72.2977 160.957 72.2977Z" fill="#FFB573" stroke="#263238" stroke-width="0.72" stroke-miterlimit="10" stroke-linecap="round" stroke-linejoin="round"/>
<path d="M154.26 81.8205L157.831 94.1713L152.326 92.5344" stroke="#263238" stroke-width="0.72" stroke-miterlimit="10" stroke-linecap="round" stroke-linejoin="round"/>
<path d="M146.82 91.0465L142.504 91.9397" stroke="#263238" stroke-width="0.72" stroke-miterlimit="10" stroke-linecap="round" stroke-linejoin="round"/>
<path d="M144.736 91.7908C144.736 91.7908 145.778 95.8088 150.539 96.5524C155.301 97.2967 157.682 96.4035 157.682 96.4035" stroke="#263238" stroke-width="0.72" stroke-miterlimit="10" stroke-linecap="round" stroke-linejoin="round"/>
<path d="M145.927 94.1719C145.927 94.1719 145.778 101.612 148.456 101.91C151.135 102.207 150.54 96.553 150.54 96.553C150.54 96.553 148.01 95.9577 145.927 94.1719Z" fill="#263238" stroke="#263238" stroke-width="0.72" stroke-miterlimit="10" stroke-linecap="round" stroke-linejoin="round"/>
<path d="M146.476 99.3156C146.842 100.674 147.449 101.797 148.457 101.909C149.052 101.975 149.485 101.747 149.799 101.352C149.283 100.437 147.486 99.6791 146.476 99.3156Z" fill="#FFB573" stroke="#263238" stroke-width="0.72" stroke-miterlimit="10" stroke-linecap="round" stroke-linejoin="round"/>
<path d="M147.787 85.2432C147.787 86.0653 147.421 86.7311 146.969 86.7311C146.517 86.7311 146.15 86.0647 146.15 85.2432C146.15 84.4217 146.517 83.7553 146.969 83.7553C147.42 83.7553 147.787 84.4211 147.787 85.2432Z" fill="#263238"/>
<path d="M157.757 83.9033C157.757 84.7253 157.391 85.3912 156.938 85.3912C156.486 85.3912 156.12 84.7248 156.12 83.9033C156.12 83.0817 156.486 82.4153 156.938 82.4153C157.391 82.4153 157.757 83.0817 157.757 83.9033Z" fill="#263238"/>
<path d="M144.29 82.7137C144.29 82.7137 146.224 80.1842 149.945 80.6305" stroke="#263238" stroke-width="0.72" stroke-miterlimit="10" stroke-linecap="round" stroke-linejoin="round"/>
<path d="M154.706 80.0358C154.706 80.0358 156.641 76.4647 159.766 78.25" stroke="#263238" stroke-width="0.72" stroke-miterlimit="10" stroke-linecap="round" stroke-linejoin="round"/>
<path d="M145.183 72.5945C145.183 72.5945 140.571 71.8502 141.612 73.1898C142.654 74.5293 145.035 76.1656 143.844 77.2078C142.654 78.2494 139.678 80.0352 139.826 80.9278C139.975 81.8205 140.273 85.5411 139.826 86.4338C139.38 87.3264 138.338 87.4754 137.297 87.3264C136.255 87.1774 134.767 84.499 134.172 83.7553C133.577 83.0116 128.22 77.6541 129.261 73.3387C130.303 69.0234 141.464 65.6006 141.464 65.6006C141.464 65.6006 148.607 57.5652 153.368 57.4162C158.13 57.2673 156.345 61.7316 156.196 62.1779C156.047 62.6242 163.041 61.7316 164.38 66.047C165.72 70.3623 165.273 71.5529 159.172 73.1898C153.07 74.8266 145.183 72.5945 145.183 72.5945Z" fill="#263238" stroke="#263238" stroke-width="0.72" stroke-miterlimit="10" stroke-linecap="round" stroke-linejoin="round"/>
<path d="M239.046 66.6527L226.918 69.7893L229.427 71.0437L222.526 73.1353L236.537 71.2531L232.982 69.5798L239.046 66.6527Z" fill="#263238"/>
<path d="M241.535 96.1795L229.267 93.6405L230.965 95.8738L223.85 94.7039L237.253 99.2002L234.801 96.1297L241.535 96.1795Z" fill="#263238"/>
<path d="M228.341 116.402L218.011 109.314L218.713 112.03L212.605 108.198L223.223 117.53L222.151 113.75L228.341 116.402Z" fill="#263238"/>
<path d="M116.554 189.17V172.024H120.661C121.818 172.024 122.796 172.161 123.593 172.437C124.39 172.712 124.997 173.181 125.414 173.845C125.83 174.508 126.038 175.411 126.038 176.554C126.038 177.246 125.975 177.867 125.848 178.417C125.721 178.967 125.505 179.436 125.202 179.825C124.898 180.213 124.478 180.513 123.943 180.724L126.334 189.17H123.202L121.127 181.317H119.688V189.17H116.554ZM119.688 179.348H120.661C121.268 179.348 121.752 179.26 122.111 179.084C122.471 178.907 122.728 178.625 122.884 178.237C123.039 177.849 123.117 177.351 123.117 176.744C123.117 175.884 122.957 175.238 122.64 174.807C122.322 174.377 121.719 174.162 120.83 174.162H119.687V179.348H119.688Z" fill="#229B52"/>
<path d="M128.387 189.17V172.024H135.585V174.226H131.52V179.158H134.717V181.338H131.52V187.011H135.627V189.17H128.387Z" fill="#229B52"/>
<path d="M137.448 189.17V172.024H144.497V174.183H140.581V179.179H143.777V181.359H140.581V189.17L137.448 189.17Z" fill="#229B52"/>
<path d="M146.126 189.17V172.024H153.324V174.226H149.26V179.158H152.456V181.338H149.26V187.011H153.366V189.17H146.126Z" fill="#229B52"/>
<path d="M155.186 189.17V172.024H159.293C160.45 172.024 161.427 172.161 162.224 172.437C163.022 172.712 163.629 173.181 164.045 173.845C164.461 174.508 164.669 175.411 164.669 176.554C164.669 177.246 164.606 177.867 164.479 178.417C164.352 178.967 164.137 179.436 163.833 179.825C163.53 180.213 163.11 180.513 162.574 180.724L164.966 189.17H161.833L159.759 181.317H158.32V189.17H155.186ZM158.319 179.348H159.292C159.899 179.348 160.383 179.26 160.743 179.084C161.103 178.907 161.36 178.625 161.516 178.237C161.67 177.849 161.748 177.351 161.748 176.744C161.748 175.884 161.589 175.238 161.272 174.807C160.954 174.377 160.351 174.162 159.462 174.162H158.319V179.348Z" fill="#229B52"/>
<path d="M103.505 211.212L106.934 194.066H110.279L113.708 211.212H110.808L110.131 207.254H107.146L106.447 211.212H103.505ZM107.463 205.263H109.792L108.628 198.066L107.463 205.263Z" fill="#229B52"/>
<path d="M120.481 211.212V194.066H127.53V196.225H123.614V201.22H126.811V203.401H123.614V211.212H120.481Z" fill="#229B52"/>
<path d="M129.16 211.212V194.066H133.267C134.423 194.066 135.401 194.203 136.198 194.478C136.996 194.753 137.603 195.223 138.019 195.886C138.435 196.55 138.643 197.453 138.643 198.596C138.643 199.287 138.58 199.908 138.453 200.459C138.326 201.009 138.111 201.478 137.807 201.867C137.503 202.255 137.083 202.554 136.548 202.766L138.939 211.212H135.806L133.732 203.359H132.293V211.212H129.16V211.212ZM132.293 201.39H133.267C133.874 201.39 134.357 201.302 134.717 201.125C135.077 200.949 135.334 200.667 135.49 200.278C135.644 199.89 135.723 199.392 135.723 198.786C135.723 197.925 135.564 197.28 135.246 196.849C134.929 196.419 134.325 196.203 133.436 196.203H132.293V201.39Z" fill="#229B52"/>
<path d="M141.077 211.212V194.066H144.167V211.212H141.077Z" fill="#229B52"/>
<path d="M146.814 211.212V194.066H154.012V196.267H149.948V201.2H153.144V203.38H149.948V209.054H154.054V211.213H146.814V211.212Z" fill="#229B52"/>
<path d="M155.874 211.212V194.066H158.054L162.224 203.846V194.066H164.807V211.212H162.732L158.541 200.967V211.212H155.874Z" fill="#229B52"/>
<path d="M167.411 211.212V194.066H171.454C172.851 194.066 173.941 194.256 174.725 194.637C175.508 195.019 176.066 195.605 176.397 196.395C176.729 197.185 176.894 198.187 176.894 199.4V205.666C176.894 206.908 176.729 207.942 176.397 208.767C176.065 209.593 175.515 210.206 174.746 210.609C173.977 211.011 172.922 211.212 171.582 211.212H167.411ZM170.544 209.032H171.497C172.216 209.032 172.731 208.905 173.042 208.65C173.352 208.397 173.543 208.027 173.613 207.539C173.684 207.053 173.719 206.456 173.719 205.751V199.189C173.719 198.498 173.669 197.94 173.571 197.516C173.472 197.093 173.267 196.783 172.957 196.585C172.646 196.388 172.145 196.289 171.454 196.289H170.544V209.032H170.544Z" fill="#229B52"/>
</svg>
