<svg width="75" height="27" viewBox="0 0 75 27" fill="none" xmlns="http://www.w3.org/2000/svg">
<rect width="75" height="27" rx="13.5" fill="#D9D9D9" fill-opacity="0.5"/>
<path d="M26.0805 19.112C25.3445 19.112 24.6832 18.984 24.0965 18.728C23.5205 18.4613 23.0672 18.0987 22.7365 17.64C22.4058 17.1707 22.2352 16.632 22.2245 16.024H23.7765C23.8298 16.5467 24.0432 16.9893 24.4165 17.352C24.8005 17.704 25.3552 17.88 26.0805 17.88C26.7738 17.88 27.3178 17.7093 27.7125 17.368C28.1178 17.016 28.3205 16.568 28.3205 16.024C28.3205 15.5973 28.2032 15.2507 27.9685 14.984C27.7338 14.7173 27.4405 14.5147 27.0885 14.376C26.7365 14.2373 26.2618 14.088 25.6645 13.928C24.9285 13.736 24.3365 13.544 23.8885 13.352C23.4512 13.16 23.0725 12.8613 22.7525 12.456C22.4432 12.04 22.2885 11.4853 22.2885 10.792C22.2885 10.184 22.4432 9.64533 22.7525 9.176C23.0618 8.70667 23.4938 8.344 24.0485 8.088C24.6138 7.832 25.2592 7.704 25.9845 7.704C27.0298 7.704 27.8832 7.96533 28.5445 8.488C29.2165 9.01067 29.5952 9.704 29.6805 10.568H28.0805C28.0272 10.1413 27.8032 9.768 27.4085 9.448C27.0138 9.11733 26.4912 8.952 25.8405 8.952C25.2325 8.952 24.7365 9.112 24.3525 9.432C23.9685 9.74133 23.7765 10.1787 23.7765 10.744C23.7765 11.1493 23.8885 11.48 24.1125 11.736C24.3472 11.992 24.6298 12.1893 24.9605 12.328C25.3018 12.456 25.7765 12.6053 26.3845 12.776C27.1205 12.9787 27.7125 13.1813 28.1605 13.384C28.6085 13.576 28.9925 13.88 29.3125 14.296C29.6325 14.7013 29.7925 15.256 29.7925 15.96C29.7925 16.504 29.6485 17.016 29.3605 17.496C29.0725 17.976 28.6458 18.3653 28.0805 18.664C27.5152 18.9627 26.8485 19.112 26.0805 19.112ZM36.8311 19L33.3911 15.128V19H31.9351V7.16H33.3911V14.12L36.7671 10.232H38.7991L34.6711 14.6L38.8151 19H36.8311ZM40.9215 8.808C40.6442 8.808 40.4095 8.712 40.2175 8.52C40.0255 8.328 39.9295 8.09333 39.9295 7.816C39.9295 7.53867 40.0255 7.304 40.2175 7.112C40.4095 6.92 40.6442 6.824 40.9215 6.824C41.1882 6.824 41.4122 6.92 41.5935 7.112C41.7855 7.304 41.8815 7.53867 41.8815 7.816C41.8815 8.09333 41.7855 8.328 41.5935 8.52C41.4122 8.712 41.1882 8.808 40.9215 8.808ZM41.6255 10.232V19H40.1695V10.232H41.6255ZM45.563 11.848C45.851 11.3467 46.2777 10.9307 46.843 10.6C47.419 10.2587 48.0857 10.088 48.843 10.088C49.6217 10.088 50.3257 10.2747 50.955 10.648C51.595 11.0213 52.0963 11.5493 52.459 12.232C52.8217 12.904 53.003 13.688 53.003 14.584C53.003 15.4693 52.8217 16.2587 52.459 16.952C52.0963 17.6453 51.595 18.184 50.955 18.568C50.3257 18.952 49.6217 19.144 48.843 19.144C48.0963 19.144 47.435 18.9787 46.859 18.648C46.2937 18.3067 45.8617 17.8853 45.563 17.384V23.16H44.107V10.232H45.563V11.848ZM51.515 14.584C51.515 13.9227 51.3817 13.3467 51.115 12.856C50.8483 12.3653 50.4857 11.992 50.027 11.736C49.579 11.48 49.083 11.352 48.539 11.352C48.0057 11.352 47.5097 11.4853 47.051 11.752C46.603 12.008 46.2403 12.3867 45.963 12.888C45.6963 13.3787 45.563 13.9493 45.563 14.6C45.563 15.2613 45.6963 15.8427 45.963 16.344C46.2403 16.8347 46.603 17.2133 47.051 17.48C47.5097 17.736 48.0057 17.864 48.539 17.864C49.083 17.864 49.579 17.736 50.027 17.48C50.4857 17.2133 50.8483 16.8347 51.115 16.344C51.3817 15.8427 51.515 15.256 51.515 14.584Z" fill="#0E0E0E"/>
</svg>
