<svg width="51" height="50" viewBox="0 0 51 50" fill="none" xmlns="http://www.w3.org/2000/svg">
<path d="M42.4402 0H8.06519C3.75269 0 0.252686 3.5 0.252686 7.8125V42.1875C0.252686 46.5 3.75269 50 8.06519 50H42.4402C46.7527 50 50.2527 46.5 50.2527 42.1875V7.8125C50.2527 3.5 46.7527 0 42.4402 0ZM25.2527 33.1375H25.0527C24.0777 35.7875 19.6777 37.5 16.9152 37.5C19.1902 35.1625 19.3527 32.6375 17.7027 31.0625C14.6902 29.175 12.7402 26.1875 12.7402 22.825C12.7402 17.125 18.3402 12.5 25.2402 12.5C32.1402 12.5 37.7402 17.125 37.7402 22.825C37.7402 28.525 32.1402 33.15 25.2402 33.15L25.2527 33.1375Z" fill="#42B245"/>
<path d="M25.7526 23.9619L24.1027 20.3369H23.2651V24.9619H24.0401V21.7869L25.4776 24.9619H26.0152L27.4526 21.7869V24.9619H28.2276V20.3369H27.4027L25.7526 23.9619Z" fill="#42B245"/>
<path d="M21.6524 22.5506C21.4524 22.4631 21.2024 22.3881 20.8899 22.3006C20.6524 22.2381 20.4649 22.1756 20.3399 22.1256C20.2024 22.0756 20.0899 22.0006 20.0024 21.9131C19.9149 21.8256 19.8774 21.7006 19.8774 21.5631C19.8774 21.3506 19.9524 21.2006 20.0899 21.0881C20.2274 20.9756 20.4149 20.9256 20.6274 20.9256C20.8774 20.9256 21.0649 20.9881 21.2149 21.1006C21.3649 21.2256 21.4399 21.3631 21.4649 21.5381H22.3149C22.2774 21.1506 22.1149 20.8381 21.8274 20.6256C21.5399 20.4006 21.1649 20.2881 20.7149 20.2881C20.3899 20.2881 20.1149 20.3381 19.8649 20.4506C19.6149 20.5631 19.4274 20.7131 19.2899 20.9131C19.1524 21.1131 19.0899 21.3506 19.0899 21.6131C19.0899 21.9006 19.1524 22.1381 19.2899 22.3006C19.4274 22.4756 19.5899 22.6006 19.7774 22.6881C19.9649 22.7631 20.2274 22.8506 20.5274 22.9256C20.7774 22.9881 20.9649 23.0506 21.1024 23.1006C21.2399 23.1506 21.3524 23.2256 21.4524 23.3256C21.5524 23.4256 21.5899 23.5506 21.5899 23.7006C21.5899 23.9006 21.5149 24.0631 21.3649 24.1881C21.2149 24.3131 21.0024 24.3756 20.7399 24.3756C20.4774 24.3756 20.2774 24.3131 20.1399 24.1881C20.0024 24.0631 19.9274 23.9006 19.9024 23.7006H19.0774C19.0774 23.9631 19.1524 24.2006 19.2899 24.4006C19.4399 24.6006 19.6274 24.7506 19.8899 24.8631C20.1399 24.9756 20.4274 25.0256 20.7399 25.0256C21.0774 25.0256 21.3649 24.9631 21.6024 24.8381C21.8524 24.7131 22.0399 24.5381 22.1649 24.3381C22.2899 24.1256 22.3649 23.9131 22.3649 23.6756C22.3649 23.3881 22.2899 23.1506 22.1524 22.9756C22.0149 22.8006 21.8524 22.6631 21.6524 22.5881V22.5506Z" fill="#42B245"/>
<path d="M31.7014 22.5506C31.5139 22.4631 31.2514 22.3881 30.9389 22.3006C30.7014 22.2381 30.5139 22.1756 30.3764 22.1256C30.2389 22.0756 30.1264 22.0006 30.0389 21.9131C29.9514 21.8256 29.9139 21.7006 29.9139 21.5631C29.9139 21.3506 29.9889 21.2006 30.1264 21.0881C30.2639 20.9756 30.4514 20.9256 30.6639 20.9256C30.9139 20.9256 31.1014 20.9881 31.2514 21.1006C31.4014 21.2256 31.4764 21.3631 31.5014 21.5381H32.3514C32.3264 21.1506 32.1639 20.8381 31.8639 20.6256C31.5764 20.4006 31.2014 20.2881 30.7514 20.2881C30.4264 20.2881 30.1514 20.3381 29.9014 20.4506C29.6514 20.5631 29.4639 20.7131 29.3264 20.9131C29.1889 21.1131 29.1264 21.3506 29.1264 21.6131C29.1264 21.9006 29.1889 22.1381 29.3264 22.3006C29.4639 22.4756 29.6264 22.6006 29.8139 22.6881C30.0139 22.7631 30.2639 22.8506 30.5639 22.9256C30.8014 22.9881 31.0014 23.0506 31.1264 23.1006C31.2639 23.1506 31.3889 23.2256 31.4764 23.3256C31.5764 23.4256 31.6139 23.5506 31.6139 23.7006C31.6139 23.9006 31.5389 24.0631 31.3889 24.1881C31.2389 24.3131 31.0264 24.3756 30.7639 24.3756C30.5014 24.3756 30.3014 24.3131 30.1639 24.1881C30.0264 24.0631 29.9389 23.9006 29.9264 23.7006H29.1014C29.1014 23.9631 29.1764 24.2006 29.3139 24.4006C29.4639 24.6006 29.6639 24.7506 29.9139 24.8631C30.1639 24.9756 30.4514 25.0256 30.7639 25.0256C31.1014 25.0256 31.3889 24.9631 31.6264 24.8381C31.8764 24.7131 32.0639 24.5381 32.1889 24.3381C32.3264 24.1256 32.3889 23.9131 32.3889 23.6756C32.3889 23.3881 32.3139 23.1506 32.1764 22.9756C32.0389 22.8006 31.8764 22.6631 31.6764 22.5881L31.7014 22.5506Z" fill="#42B245"/>
</svg>
