<svg width="51" height="50" viewBox="0 0 51 50" fill="none" xmlns="http://www.w3.org/2000/svg">
<path d="M43.1296 0H7.37603C3.43952 0 0.252808 3.1867 0.252808 7.12322V42.8768C0.252808 46.8133 3.43952 50 7.37603 50H43.1296C47.0661 50 50.2528 46.8133 50.2528 42.8768V7.12322C50.2528 3.1867 47.0661 0 43.1296 0ZM35.8689 23.6316C35.1566 28.093 34.3818 32.9668 34.3818 32.9668C34.3818 32.9668 34.2568 34.3289 33.2571 34.5789C32.2448 34.8163 30.5827 33.7416 30.2828 33.5041C30.0454 33.3292 25.8214 30.6548 24.2718 29.3427C23.8594 28.9803 23.3845 28.2679 24.3343 27.4431C26.4713 25.4811 29.0331 23.0442 30.5827 21.4946C31.2951 20.7823 32.0074 19.1202 29.0331 21.1322C24.8092 24.044 20.6477 26.7808 20.6477 26.7808C20.6477 26.7808 19.698 27.3807 17.9109 26.8433C16.1238 26.3059 14.0494 25.5936 14.0494 25.5936C14.0494 25.5936 12.6247 24.7063 15.0616 23.7441C15.0616 23.7441 25.359 19.5201 28.9206 18.033C30.2828 17.4331 34.9316 15.5336 34.9316 15.5336C34.9316 15.5336 37.0686 14.6963 36.8936 16.7208C36.8312 17.5581 36.3563 20.4699 35.8814 23.6191L35.8689 23.6316Z" fill="#2196F3"/>
</svg>
