<svg width="51" height="50" viewBox="0 0 51 50" fill="none" xmlns="http://www.w3.org/2000/svg">
<path d="M42.9347 0H8.55969C4.24719 0 0.747192 3.5 0.747192 7.8125V42.1875C0.747192 46.5 4.24719 50 8.55969 50H42.9347C47.2472 50 50.7472 46.5 50.7472 42.1875V7.8125C50.7472 3.5 47.2472 0 42.9347 0ZM25.7472 36.725C23.8472 36.725 21.9097 36.1375 20.0847 35.225L19.8722 35.125L19.6472 35.1875L14.1347 36.6375L15.5597 31.4375L15.6347 31.1875L15.4972 30.9625C14.4597 29.175 13.8597 27.1 13.8597 25.025C13.8597 18.5 19.2097 13.15 25.7347 13.15C28.8597 13.15 31.8222 14.3375 34.0472 16.5625C36.2847 18.8 37.6097 21.775 37.6097 24.875C37.6097 31.4 32.2597 36.75 25.7347 36.75L25.7472 36.725Z" fill="#63B053"/>
<path d="M33.1293 29.4733C32.8474 30.2573 31.7476 30.9058 30.8678 31.0976C30.27 31.2216 29.4805 31.3231 26.8411 30.2291C23.4573 28.8304 21.2804 25.3959 21.1113 25.1703C20.9477 24.9503 19.7465 23.3487 19.7465 21.7019C19.7465 20.0495 20.5811 19.243 20.9195 18.899C21.2015 18.617 21.6583 18.4873 22.0982 18.4873C22.2392 18.4873 22.3689 18.4929 22.4817 18.4986C22.8201 18.5155 22.9893 18.5324 23.2148 19.0682C23.4912 19.7393 24.1679 21.3861 24.2469 21.5553C24.3315 21.7301 24.4104 21.9557 24.2977 22.1813C24.1905 22.4125 24.0946 22.514 23.9254 22.7058C23.7563 22.9031 23.5927 23.0554 23.4235 23.2641C23.2712 23.4446 23.0908 23.6419 23.2882 23.9803C23.4855 24.3131 24.1623 25.4128 25.1549 26.2982C26.4407 27.4431 27.4784 27.8096 27.8506 27.9619C28.1326 28.0803 28.4597 28.0521 28.6627 27.8378C28.9222 27.5559 29.238 27.099 29.5651 26.6422C29.7907 26.3208 30.0839 26.2813 30.3885 26.3941C30.6987 26.5012 32.3454 27.3134 32.6782 27.4825C33.0166 27.6517 33.2421 27.7307 33.3211 27.8773C33.4057 28.0183 33.4057 28.6894 33.1293 29.4733Z" fill="#63B053"/>
</svg>
