<svg width="51" height="50" viewBox="0 0 51 50" fill="none" xmlns="http://www.w3.org/2000/svg">
<path d="M42.9347 0H8.55969C4.23469 0 0.747192 3.5 0.747192 7.8125V42.1875C0.747192 46.5 4.24719 50 8.55969 50H42.9347C47.2472 50 50.7472 46.5 50.7472 42.1875V7.8125C50.7472 3.5 47.2472 0 42.9347 0ZM35.5847 19.85C35.8972 27.2 30.5847 35.1625 21.0597 35.1625C18.2472 35.1625 15.5847 34.225 13.2472 32.8125C15.8972 33.125 18.7222 32.3375 20.5972 30.9375C18.2472 30.9375 16.3722 29.375 15.7472 27.3375C16.5222 27.4875 17.3097 27.3375 18.0972 27.1875C15.7472 26.5625 14.0347 24.375 14.0347 22.0375C14.8097 22.35 15.5972 22.6625 16.3847 22.6625C14.1972 21.1 13.4097 18.1375 14.8222 15.7875C17.4722 18.9125 21.2222 20.9375 25.4472 21.1C24.6722 17.975 27.1722 14.85 30.4472 14.85C31.8472 14.85 33.2597 15.475 34.1972 16.4125C35.4472 16.1 36.5472 15.7875 37.4722 15.1625C37.1597 16.4125 36.3722 17.35 35.2847 17.975C36.3847 17.825 37.3097 17.6625 38.2597 17.2C37.6347 18.3 36.6972 19.225 35.6097 19.85H35.5847Z" fill="#2196F3"/>
</svg>
